<svg class="plot-d6a7b5" fill="currentColor" font-family="system-ui, sans-serif" font-size="10" text-anchor="middle" width="640" height="400" viewBox="0 0 640 400" xmlns="http://www.w3.org/2000/svg" xmlns:xlink="http://www.w3.org/1999/xlink"><style>:where(.plot-d6a7b5) {
  --plot-background: white;
  display: block;
  height: auto;
  height: intrinsic;
  max-width: 100%;
}
:where(.plot-d6a7b5 text),
:where(.plot-d6a7b5 tspan) {
  white-space: pre;
}</style><g aria-label="line" fill="none" stroke="green" stroke-width="4" stroke-linejoin="round" stroke-linecap="round"><path d="M0.5,399.5L1.14,399.427L1.779,399.211L2.419,398.856L3.059,398.367L3.698,397.747L4.338,397.001L4.977,396.133L5.617,395.146L6.257,394.044L6.896,392.831L7.536,391.511L8.176,390.087L8.815,388.562L9.455,386.941L10.095,385.226L10.734,383.421L11.374,381.529L12.014,379.553L12.653,377.496L13.293,375.362L13.932,373.153L14.572,370.871L15.212,368.521L15.851,366.104L16.491,363.624L17.131,361.082L17.77,358.482L18.41,355.827L19.05,353.118L19.689,350.358L20.329,347.549L20.968,344.694L21.608,341.795L22.248,338.854L22.887,335.874L23.527,332.856L24.167,329.803L24.806,326.716L25.446,323.597L26.086,320.45L26.725,317.274L27.365,314.073L28.005,310.847L28.644,307.6L29.284,304.331L29.923,301.044L30.563,297.74L31.203,294.419L31.842,291.085L32.482,287.738L33.122,284.38L33.761,281.012L34.401,277.635L35.041,274.252L35.68,270.863L36.32,267.47L36.959,264.073L37.599,260.675L38.239,257.276L38.878,253.878L39.518,250.481L40.158,247.087L40.797,243.696L41.437,240.311L42.077,236.931L42.716,233.558L43.356,230.193L43.995,226.837L44.635,223.49L45.275,220.154L45.914,216.829L46.554,213.516L47.194,210.217L47.833,206.931L48.473,203.659L49.113,200.403L49.752,197.162L50.392,193.939L51.032,190.732L51.671,187.544L52.311,184.374L52.95,181.223L53.59,178.092L54.23,174.981L54.869,171.891L55.509,168.822L56.149,165.776L56.788,162.751L57.428,159.749L58.068,156.771L58.707,153.816L59.347,150.885L59.986,147.979L60.626,145.098L61.266,142.242L61.905,139.411L62.545,136.607L63.185,133.828L63.824,131.076L64.464,128.351L65.104,125.654L65.743,122.983L66.383,120.34L67.023,117.725L67.662,115.138L68.302,112.58L68.941,110.049L69.581,107.548L70.221,105.076L70.86,102.632L71.5,100.218L72.14,97.833L72.779,95.477L73.419,93.151L74.059,90.855L74.698,88.589L75.338,86.352L75.977,84.146L76.617,81.97L77.257,79.823L77.896,77.707L78.536,75.621L79.176,73.566L79.815,71.541L80.455,69.546L81.095,67.581L81.734,65.647L82.374,63.743L83.014,61.87L83.653,60.027L84.293,58.214L84.932,56.431L85.572,54.679L86.212,52.957L86.851,51.265L87.491,49.604L88.131,47.972L88.77,46.371L89.41,44.799L90.05,43.258L90.689,41.746L91.329,40.264L91.968,38.811L92.608,37.388L93.248,35.995L93.887,34.63L94.527,33.296L95.167,31.99L95.806,30.713L96.446,29.465L97.086,28.246L97.725,27.056L98.365,25.894L99.005,24.76L99.644,23.655L100.284,22.578L100.923,21.529L101.563,20.507L102.203,19.514L102.842,18.548L103.482,17.609L104.122,16.697L104.761,15.813L105.401,14.955L106.041,14.125L106.68,13.321L107.32,12.543L107.959,11.791L108.599,11.066L109.239,10.366L109.878,9.692L110.518,9.044L111.158,8.421L111.797,7.823L112.437,7.25L113.077,6.702L113.716,6.179L114.356,5.68L114.995,5.205L115.635,4.755L116.275,4.328L116.914,3.925L117.554,3.546L118.194,3.189L118.833,2.856L119.473,2.546L120.113,2.259L120.752,1.994L121.392,1.751L122.032,1.531L122.671,1.332L123.311,1.155L123.95,1L124.59,0.866L125.23,0.754L125.869,0.662L126.509,0.591L127.149,0.54L127.788,0.51L128.428,0.5L129.068,0.51L129.707,0.54L130.347,0.589L130.986,0.657L131.626,0.745L132.266,0.852L132.905,0.977L133.545,1.121L134.185,1.284L134.824,1.464L135.464,1.663L136.104,1.879L136.743,2.113L137.383,2.364L138.023,2.632L138.662,2.918L139.302,3.22L139.941,3.539L140.581,3.874L141.221,4.225L141.86,4.592L142.5,4.975L143.14,5.374L143.779,5.788L144.419,6.218L145.059,6.662L145.698,7.122L146.338,7.596L146.977,8.084L147.617,8.587L148.257,9.104L148.896,9.635L149.536,10.179L150.176,10.737L150.815,11.309L151.455,11.894L152.095,12.491L152.734,13.102L153.374,13.725L154.014,14.361L154.653,15.009L155.293,15.669L155.932,16.341L156.572,17.025L157.212,17.721L157.851,18.427L158.491,19.146L159.131,19.875L159.77,20.615L160.41,21.366L161.05,22.128L161.689,22.9L162.329,23.682L162.968,24.474L163.608,25.276L164.248,26.088L164.887,26.91L165.527,27.741L166.167,28.581L166.806,29.431L167.446,30.289L168.086,31.157L168.725,32.033L169.365,32.917L170.005,33.81L170.644,34.711L171.284,35.62L171.923,36.537L172.563,37.462L173.203,38.394L173.842,39.334L174.482,40.282L175.122,41.236L175.761,42.197L176.401,43.166L177.041,44.141L177.68,45.123L178.32,46.111L178.959,47.106L179.599,48.107L180.239,49.114L180.878,50.127L181.518,51.146L182.158,52.17L182.797,53.2L183.437,54.236L184.077,55.277L184.716,56.323L185.356,57.374L185.995,58.43L186.635,59.491L187.275,60.556L187.914,61.626L188.554,62.701L189.194,63.78L189.833,64.863L190.473,65.951L191.113,67.042L191.752,68.137L192.392,69.236L193.032,70.339L193.671,71.445L194.311,72.555L194.95,73.668L195.59,74.784L196.23,75.904L196.869,77.026L197.509,78.151L198.149,79.28L198.788,80.411L199.428,81.544L200.068,82.68L200.707,83.819L201.347,84.96L201.986,86.103L202.626,87.248L203.266,88.395L203.905,89.544L204.545,90.695L205.185,91.848L205.824,93.003L206.464,94.159L207.104,95.316L207.743,96.475L208.383,97.636L209.023,98.797L209.662,99.96L210.302,101.124L210.941,102.289L211.581,103.455L212.221,104.621L212.86,105.789L213.5,106.957L214.14,108.126L214.779,109.295L215.419,110.465L216.059,111.635L216.698,112.805L217.338,113.976L217.977,115.147L218.617,116.317L219.257,117.488L219.896,118.659L220.536,119.83L221.176,121.001L221.815,122.171L222.455,123.341L223.095,124.511L223.734,125.68L224.374,126.849L225.014,128.017L225.653,129.185L226.293,130.352L226.932,131.518L227.572,132.683L228.212,133.848L228.851,135.011L229.491,136.174L230.131,137.336L230.77,138.496L231.41,139.656L232.05,140.814L232.689,141.971L233.329,143.127L233.968,144.281L234.608,145.434L235.248,146.586L235.887,147.736L236.527,148.884L237.167,150.031L237.806,151.177L238.446,152.321L239.086,153.463L239.725,154.603L240.365,155.741L241.005,156.878L241.644,158.013L242.284,159.145L242.923,160.276L243.563,161.405L244.203,162.532L244.842,163.657L245.482,164.779L246.122,165.9L246.761,167.018L247.401,168.134L248.041,169.248L248.68,170.359L249.32,171.468L249.959,172.575L250.599,173.679L251.239,174.781L251.878,175.881L252.518,176.977L253.158,178.072L253.797,179.164L254.437,180.253L255.077,181.34L255.716,182.424L256.356,183.505L256.995,184.584L257.635,185.659L258.275,186.733L258.914,187.803L259.554,188.87L260.194,189.935L260.833,190.997L261.473,192.056L262.113,193.112L262.752,194.165L263.392,195.216L264.032,196.263L264.671,197.307L265.311,198.348L265.95,199.387L266.59,200.422L267.23,201.454L267.869,202.483L268.509,203.509L269.149,204.532L269.788,205.552L270.428,206.568L271.068,207.581L271.707,208.592L272.347,209.599L272.986,210.602L273.626,211.603L274.266,212.6L274.905,213.594L275.545,214.585L276.185,215.572L276.824,216.556L277.464,217.537L278.104,218.515L278.743,219.489L279.383,220.46L280.023,221.427L280.662,222.391L281.302,223.352L281.941,224.309L282.581,225.263L283.221,226.213L283.86,227.161L284.5,228.104L285.14,229.044L285.779,229.981L286.419,230.914L287.059,231.844L287.698,232.771L288.338,233.693L288.977,234.613L289.617,235.529L290.257,236.441L290.896,237.35L291.536,238.256L292.176,239.157L292.815,240.056L293.455,240.951L294.095,241.842L294.734,242.73L295.374,243.614L296.014,244.495L296.653,245.372L297.293,246.246L297.932,247.116L298.572,247.983L299.212,248.846L299.851,249.706L300.491,250.562L301.131,251.414L301.77,252.263L302.41,253.108L303.05,253.95L303.689,254.789L304.329,255.623L304.968,256.455L305.608,257.282L306.248,258.106L306.887,258.927L307.527,259.744L308.167,260.557L308.806,261.367L309.446,262.174L310.086,262.977L310.725,263.776L311.365,264.572L312.005,265.364L312.644,266.153L313.284,266.938L313.923,267.72L314.563,268.498L315.203,269.272L315.842,270.043L316.482,270.811L317.122,271.575L317.761,272.336L318.401,273.093L319.041,273.847L319.68,274.597L320.32,275.343L320.959,276.087L321.599,276.826L322.239,277.563L322.878,278.295L323.518,279.025L324.158,279.751L324.797,280.473L325.437,281.192L326.077,281.908L326.716,282.62L327.356,283.329L327.995,284.034L328.635,284.736L329.275,285.434L329.914,286.13L330.554,286.821L331.194,287.51L331.833,288.195L332.473,288.876L333.113,289.555L333.752,290.229L334.392,290.901L335.032,291.569L335.671,292.234L336.311,292.896L336.95,293.554L337.59,294.209L338.23,294.861L338.869,295.509L339.509,296.154L340.149,296.796L340.788,297.435L341.428,298.07L342.068,298.702L342.707,299.331L343.347,299.956L343.986,300.579L344.626,301.198L345.266,301.814L345.905,302.427L346.545,303.036L347.185,303.643L347.824,304.246L348.464,304.846L349.104,305.443L349.743,306.037L350.383,306.628L351.023,307.215L351.662,307.8L352.302,308.381L352.941,308.96L353.581,309.535L354.221,310.107L354.86,310.676L355.5,311.242L356.14,311.805L356.779,312.365L357.419,312.922L358.059,313.476L358.698,314.027L359.338,314.575L359.977,315.12L360.617,315.662L361.257,316.201L361.896,316.737L362.536,317.27L363.176,317.801L363.815,318.328L364.455,318.853L365.095,319.374L365.734,319.893L366.374,320.409L367.014,320.922L367.653,321.432L368.293,321.939L368.932,322.443L369.572,322.945L370.212,323.444L370.851,323.94L371.491,324.433L372.131,324.923L372.77,325.411L373.41,325.896L374.05,326.378L374.689,326.857L375.329,327.334L375.968,327.808L376.608,328.28L377.248,328.748L377.887,329.214L378.527,329.677L379.167,330.138L379.806,330.596L380.446,331.051L381.086,331.504L381.725,331.954L382.365,332.402L383.005,332.846L383.644,333.289L384.284,333.729L384.923,334.166L385.563,334.6L386.203,335.033L386.842,335.462L387.482,335.889L388.122,336.314L388.761,336.736L389.401,337.155L390.041,337.573L390.68,337.987L391.32,338.399L391.959,338.809L392.599,339.217L393.239,339.622L393.878,340.024L394.518,340.424L395.158,340.822L395.797,341.217L396.437,341.61L397.077,342.001L397.716,342.389L398.356,342.775L398.995,343.159L399.635,343.541L400.275,343.92L400.914,344.296L401.554,344.671L402.194,345.043L402.833,345.413L403.473,345.781L404.113,346.147L404.752,346.51L405.392,346.871L406.032,347.23L406.671,347.587L407.311,347.941L407.95,348.294L408.59,348.644L409.23,348.992L409.869,349.338L410.509,349.682L411.149,350.023L411.788,350.363L412.428,350.7L413.068,351.036L413.707,351.369L414.347,351.7L414.986,352.03L415.626,352.357L416.266,352.682L416.905,353.005L417.545,353.326L418.185,353.645L418.824,353.962L419.464,354.277L420.104,354.591L420.743,354.902L421.383,355.211L422.023,355.518L422.662,355.824L423.302,356.127L423.941,356.429L424.581,356.728L425.221,357.026L425.86,357.322L426.5,357.616L427.14,357.908L427.779,358.198L428.419,358.487L429.059,358.773L429.698,359.058L430.338,359.341L430.977,359.622L431.617,359.902L432.257,360.179L432.896,360.455L433.536,360.729L434.176,361.001L434.815,361.272L435.455,361.541L436.095,361.808L436.734,362.073L437.374,362.337L438.014,362.599L438.653,362.859L439.293,363.118L439.932,363.375L440.572,363.63L441.212,363.883L441.851,364.135L442.491,364.386L443.131,364.634L443.77,364.882L444.41,365.127L445.05,365.371L445.689,365.613L446.329,365.854L446.968,366.093L447.608,366.331L448.248,366.567L448.887,366.801L449.527,367.034L450.167,367.265L450.806,367.495L451.446,367.724L452.086,367.951L452.725,368.176L453.365,368.4L454.005,368.622L454.644,368.843L455.284,369.063L455.923,369.281L456.563,369.497L457.203,369.712L457.842,369.926L458.482,370.138L459.122,370.349L459.761,370.559L460.401,370.767L461.041,370.974L461.68,371.179L462.32,371.383L462.959,371.586L463.599,371.787L464.239,371.987L464.878,372.185L465.518,372.382L466.158,372.578L466.797,372.773L467.437,372.966L468.077,373.158L468.716,373.349L469.356,373.538L469.995,373.727L470.635,373.913L471.275,374.099L471.914,374.283L472.554,374.467L473.194,374.648L473.833,374.829L474.473,375.008L475.113,375.187L475.752,375.364L476.392,375.539L477.032,375.714L477.671,375.887L478.311,376.06L478.95,376.231L479.59,376.401L480.23,376.569L480.869,376.737L481.509,376.903L482.149,377.069L482.788,377.233L483.428,377.396L484.068,377.558L484.707,377.719L485.347,377.878L485.986,378.037L486.626,378.195L487.266,378.351L487.905,378.506L488.545,378.661L489.185,378.814L489.824,378.966L490.464,379.117L491.104,379.267L491.743,379.416L492.383,379.564L493.023,379.711L493.662,379.857L494.302,380.002L494.941,380.146L495.581,380.289L496.221,380.431L496.86,380.572L497.5,380.712L498.14,380.851L498.779,380.989L499.419,381.126L500.059,381.263L500.698,381.398L501.338,381.532L501.977,381.665L502.617,381.798L503.257,381.929L503.896,382.06L504.536,382.189L505.176,382.318L505.815,382.446L506.455,382.573L507.095,382.699L507.734,382.824L508.374,382.948L509.014,383.072L509.653,383.194L510.293,383.316L510.932,383.437L511.572,383.557L512.212,383.676L512.851,383.794L513.491,383.911L514.131,384.028L514.77,384.144L515.41,384.259L516.05,384.373L516.689,384.486L517.329,384.599L517.968,384.71L518.608,384.821L519.248,384.931L519.887,385.041L520.527,385.149L521.167,385.257L521.806,385.364L522.446,385.471L523.086,385.576L523.725,385.681L524.365,385.785L525.005,385.888L525.644,385.991L526.284,386.093L526.923,386.194L527.563,386.294L528.203,386.394L528.842,386.493L529.482,386.591L530.122,386.688L530.761,386.785L531.401,386.881L532.041,386.977L532.68,387.072L533.32,387.166L533.959,387.259L534.599,387.352L535.239,387.444L535.878,387.535L536.518,387.626L537.158,387.716L537.797,387.805L538.437,387.894L539.077,387.982L539.716,388.07L540.356,388.157L540.995,388.243L541.635,388.329L542.275,388.414L542.914,388.498L543.554,388.582L544.194,388.665L544.833,388.747L545.473,388.829L546.113,388.911L546.752,388.991L547.392,389.072L548.032,389.151L548.671,389.23L549.311,389.309L549.95,389.387L550.59,389.464L551.23,389.541L551.869,389.617L552.509,389.692L553.149,389.767L553.788,389.842L554.428,389.916L555.068,389.989L555.707,390.062L556.347,390.135L556.986,390.207L557.626,390.278L558.266,390.349L558.905,390.419L559.545,390.489L560.185,390.558L560.824,390.627L561.464,390.695L562.104,390.763L562.743,390.83L563.383,390.896L564.023,390.963L564.662,391.028L565.302,391.094L565.941,391.159L566.581,391.223L567.221,391.287L567.86,391.35L568.5,391.413L569.14,391.475L569.779,391.537L570.419,391.599L571.059,391.66L571.698,391.72L572.338,391.781L572.977,391.84L573.617,391.9L574.257,391.958L574.896,392.017L575.536,392.075L576.176,392.132L576.815,392.189L577.455,392.246L578.095,392.302L578.734,392.358L579.374,392.413L580.014,392.468L580.653,392.523L581.293,392.577L581.932,392.631L582.572,392.684L583.212,392.737L583.851,392.79L584.491,392.842L585.131,392.894L585.77,392.945L586.41,392.996L587.05,393.047L587.689,393.097L588.329,393.147L588.968,393.197L589.608,393.246L590.248,393.295L590.887,393.343L591.527,393.391L592.167,393.439L592.806,393.486L593.446,393.533L594.086,393.58L594.725,393.626L595.365,393.672L596.005,393.717L596.644,393.763L597.284,393.808L597.923,393.852L598.563,393.896L599.203,393.94L599.842,393.984L600.482,394.027L601.122,394.07L601.761,394.112L602.401,394.155L603.041,394.197L603.68,394.238L604.32,394.28L604.959,394.321L605.599,394.361L606.239,394.402L606.878,394.442L607.518,394.481L608.158,394.521L608.797,394.56L609.437,394.599L610.077,394.637L610.716,394.676L611.356,394.714L611.995,394.751L612.635,394.789L613.275,394.826L613.914,394.863L614.554,394.899L615.194,394.936L615.833,394.972L616.473,395.007L617.113,395.043L617.752,395.078L618.392,395.113L619.032,395.148L619.671,395.182L620.311,395.216L620.95,395.25L621.59,395.284L622.23,395.317L622.869,395.35L623.509,395.383L624.149,395.415L624.788,395.448L625.428,395.48L626.068,395.512L626.707,395.543L627.347,395.575L627.986,395.606L628.626,395.637L629.266,395.667L629.905,395.698L630.545,395.728L631.185,395.758L631.824,395.788L632.464,395.817L633.104,395.846L633.743,395.875L634.383,395.904L635.023,395.933L635.662,395.961L636.302,395.989L636.941,396.017L637.581,396.045L638.221,396.073L638.86,396.1L639.5,396.127"/></g></svg>