<svg class="plot-d6a7b5" fill="currentColor" font-family="system-ui, sans-serif" font-size="10" text-anchor="middle" width="640" height="400" viewBox="0 0 640 400" xmlns="http://www.w3.org/2000/svg" xmlns:xlink="http://www.w3.org/1999/xlink"><style>:where(.plot-d6a7b5) {
  --plot-background: white;
  display: block;
  height: auto;
  height: intrinsic;
  max-width: 100%;
}
:where(.plot-d6a7b5 text),
:where(.plot-d6a7b5 tspan) {
  white-space: pre;
}</style><g aria-label="line" fill="none" stroke="steelblue" stroke-width="4" stroke-linejoin="round" stroke-linecap="round"><path d="M-478.75,399.5L-477.951,399.5L-477.153,399.5L-476.354,399.5L-475.555,399.5L-474.756,399.5L-473.957,399.5L-473.159,399.5L-472.36,399.5L-471.561,399.5L-470.763,399.5L-469.964,399.5L-469.165,399.5L-468.366,399.5L-467.567,399.5L-466.769,399.5L-465.97,399.5L-465.171,399.5L-464.373,399.5L-463.574,399.5L-462.775,399.5L-461.976,399.5L-461.177,399.5L-460.379,399.5L-459.58,399.5L-458.781,399.5L-457.982,399.5L-457.184,399.5L-456.385,399.5L-455.586,399.5L-454.787,399.5L-453.989,399.5L-453.19,399.5L-452.391,399.5L-451.593,399.5L-450.794,399.5L-449.995,399.5L-449.196,399.5L-448.397,399.5L-447.599,399.5L-446.8,399.5L-446.001,399.5L-445.202,399.5L-444.404,399.5L-443.605,399.5L-442.806,399.5L-442.007,399.5L-441.209,399.5L-440.41,399.5L-439.611,399.5L-438.812,399.5L-438.014,399.5L-437.215,399.5L-436.416,399.5L-435.618,399.5L-434.819,399.5L-434.02,399.5L-433.221,399.5L-432.422,399.5L-431.624,399.5L-430.825,399.5L-430.026,399.5L-429.228,399.5L-428.429,399.5L-427.63,399.5L-426.831,399.5L-426.032,399.5L-425.234,399.5L-424.435,399.5L-423.636,399.5L-422.838,399.5L-422.039,399.5L-421.24,399.5L-420.441,399.5L-419.642,399.5L-418.844,399.5L-418.045,399.5L-417.246,399.5L-416.448,399.5L-415.649,399.5L-414.85,399.5L-414.051,399.5L-413.252,399.5L-412.454,399.5L-411.655,399.5L-410.856,399.5L-410.057,399.5L-409.259,399.5L-408.46,399.5L-407.661,399.5L-406.862,399.5L-406.064,399.5L-405.265,399.5L-404.466,399.5L-403.667,399.5L-402.869,399.5L-402.07,399.5L-401.271,399.5L-400.472,399.5L-399.674,399.5L-398.875,399.5L-398.076,399.5L-397.278,399.5L-396.479,399.5L-395.68,399.5L-394.881,399.5L-394.082,399.5L-393.284,399.5L-392.485,399.5L-391.686,399.5L-390.888,399.5L-390.089,399.5L-389.29,399.5L-388.491,399.5L-387.692,399.5L-386.894,399.5L-386.095,399.5L-385.296,399.5L-384.498,399.5L-383.699,399.5L-382.9,399.5L-382.101,399.5L-381.302,399.5L-380.504,399.5L-379.705,399.5L-378.906,399.5L-378.107,399.5L-377.309,399.5L-376.51,399.5L-375.711,399.5L-374.912,399.5L-374.114,399.5L-373.315,399.5L-372.516,399.5L-371.718,399.5L-370.919,399.5L-370.12,399.5L-369.321,399.5L-368.522,399.5L-367.724,399.5L-366.925,399.5L-366.126,399.5L-365.327,399.5L-364.529,399.5L-363.73,399.5L-362.931,399.5L-362.132,399.5L-361.334,399.5L-360.535,399.5L-359.736,399.5L-358.937,399.5L-358.139,399.5L-357.34,399.5L-356.541,399.5L-355.743,399.5L-354.944,399.5L-354.145,399.5L-353.346,399.5L-352.547,399.5L-351.749,399.5L-350.95,399.5L-350.151,399.5L-349.352,399.5L-348.554,399.5L-347.755,399.5L-346.956,399.5L-346.157,399.5L-345.359,399.5L-344.56,399.5L-343.761,399.5L-342.963,399.5L-342.164,399.5L-341.365,399.5L-340.566,399.5L-339.767,399.5L-338.969,399.5L-338.17,399.5L-337.371,399.5L-336.573,399.5L-335.774,399.5L-334.975,399.5L-334.176,399.5L-333.377,399.5L-332.579,399.5L-331.78,399.5L-330.981,399.5L-330.182,399.5L-329.384,399.5L-328.585,399.5L-327.786,399.5L-326.987,399.5L-326.189,399.5L-325.39,399.5L-324.591,399.5L-323.792,399.5L-322.994,399.5L-322.195,399.5L-321.396,399.5L-320.597,399.5L-319.799,399.5L-319,399.5L-318.201,399.5L-317.403,399.5L-316.604,399.5L-315.805,399.5L-315.006,399.5L-314.207,399.5L-313.409,399.5L-312.61,399.5L-311.811,399.5L-311.013,399.5L-310.214,399.5L-309.415,399.5L-308.616,399.5L-307.817,399.5L-307.019,399.5L-306.22,399.5L-305.421,399.5L-304.623,399.5L-303.824,399.5L-303.025,399.5L-302.226,399.5L-301.427,399.5L-300.629,399.5L-299.83,399.5L-299.031,399.5L-298.232,399.5L-297.434,399.5L-296.635,399.5L-295.836,399.5L-295.037,399.5L-294.239,399.5L-293.44,399.5L-292.641,399.5L-291.843,399.5L-291.044,399.5L-290.245,399.5L-289.446,399.5L-288.648,399.5L-287.849,399.5L-287.05,399.5L-286.251,399.5L-285.452,399.5L-284.654,399.5L-283.855,399.5L-283.056,399.5L-282.257,399.5L-281.459,399.5L-280.66,399.5L-279.861,399.5L-279.062,399.5L-278.264,399.5L-277.465,399.5L-276.666,399.5L-275.867,399.5L-275.069,399.5L-274.27,399.5L-273.471,399.5L-272.672,399.5L-271.874,399.5L-271.075,399.5L-270.276,399.5L-269.477,399.5L-268.679,399.5L-267.88,399.5L-267.081,399.5L-266.282,399.5L-265.484,399.5L-264.685,399.5L-263.886,399.5L-263.087,399.5L-262.289,399.5L-261.49,399.5L-260.691,399.5L-259.892,399.5L-259.094,399.5L-258.295,399.5L-257.496,399.5L-256.697,399.5L-255.899,399.5L-255.1,399.5L-254.301,399.5L-253.502,399.5L-252.704,399.5L-251.905,399.5L-251.106,399.5L-250.308,399.5L-249.509,399.5L-248.71,399.5L-247.911,399.5L-247.112,399.5L-246.314,399.5L-245.515,399.5L-244.716,399.5L-243.918,399.5L-243.119,399.5L-242.32,399.5L-241.521,399.5L-240.722,399.5L-239.924,399.5L-239.125,399.5L-238.326,399.5L-237.528,399.5L-236.729,399.5L-235.93,399.5L-235.131,399.5L-234.332,399.5L-233.534,399.5L-232.735,399.5L-231.936,399.5L-231.138,399.5L-230.339,399.5L-229.54,399.5L-228.741,399.5L-227.942,399.5L-227.144,399.5L-226.345,399.5L-225.546,399.5L-224.747,399.5L-223.949,399.5L-223.15,399.5L-222.351,399.5L-221.552,399.5L-220.754,399.5L-219.955,399.5L-219.156,399.5L-218.358,399.5L-217.559,399.5L-216.76,399.5L-215.961,399.5L-215.162,399.5L-214.364,399.5L-213.565,399.5L-212.766,399.5L-211.968,399.5L-211.169,399.5L-210.37,399.5L-209.571,399.5L-208.772,399.5L-207.974,399.5L-207.175,399.5L-206.376,399.5L-205.578,399.5L-204.779,399.5L-203.98,399.5L-203.181,399.5L-202.382,399.5L-201.584,399.5L-200.785,399.5L-199.986,399.5L-199.187,399.5L-198.389,399.5L-197.59,399.5L-196.791,399.5L-195.992,399.5L-195.194,399.5L-194.395,399.5L-193.596,399.5L-192.797,399.5L-191.999,399.5L-191.2,399.5L-190.401,399.5L-189.602,399.5L-188.804,399.5L-188.005,399.5L-187.206,399.5L-186.407,399.5L-185.609,399.5L-184.81,399.5L-184.011,399.5L-183.212,399.5L-182.414,399.5L-181.615,399.5L-180.816,399.5L-180.017,399.5L-179.219,399.5L-178.42,399.5L-177.621,399.5L-176.822,399.5L-176.024,399.5L-175.225,399.5L-174.426,399.5L-173.627,399.5L-172.829,399.5L-172.03,399.5L-171.231,399.5L-170.433,399.5L-169.634,399.5L-168.835,399.5L-168.036,399.5L-167.237,399.5L-166.439,399.5L-165.64,399.5L-164.841,399.5L-164.043,399.5L-163.244,399.5L-162.445,399.5L-161.646,399.5L-160.847,399.5L-160.049,399.5L-159.25,399.5L-158.451,399.5L-157.652,399.5L-156.854,399.5L-156.055,399.5L-155.256,399.5L-154.457,399.5L-153.659,399.5L-152.86,399.5L-152.061,399.5L-151.263,399.5L-150.464,399.5L-149.665,399.5L-148.866,399.5L-148.068,399.5L-147.269,399.5L-146.47,399.5L-145.671,399.5L-144.872,399.5L-144.074,399.5L-143.275,399.5L-142.476,399.5L-141.677,399.5L-140.879,399.5L-140.08,399.5L-139.281,399.5L-138.483,399.5L-137.684,399.5L-136.885,399.5L-136.086,399.5L-135.288,399.5L-134.489,399.5L-133.69,399.5L-132.891,399.5L-132.093,399.5L-131.294,399.5L-130.495,399.5L-129.696,399.5L-128.898,399.5L-128.099,399.5L-127.3,399.5L-126.501,399.5L-125.703,399.5L-124.904,399.5L-124.105,399.5L-123.306,399.5L-122.508,399.5L-121.709,399.5L-120.91,399.5L-120.111,399.5L-119.312,399.5L-118.514,399.5L-117.715,399.5L-116.916,399.5L-116.117,399.5L-115.319,399.5L-114.52,399.5L-113.721,399.5L-112.922,399.5L-112.124,399.5L-111.325,399.5L-110.526,399.5L-109.727,399.5L-108.929,399.5L-108.13,399.5L-107.331,399.5L-106.532,399.5L-105.734,399.5L-104.935,399.5L-104.136,399.5L-103.337,399.5L-102.539,399.5L-101.74,399.5L-100.941,399.5L-100.142,399.5L-99.344,399.5L-98.545,399.5L-97.746,399.5L-96.947,399.5L-96.149,399.5L-95.35,399.499L-94.551,399.499L-93.752,399.499L-92.954,399.499L-92.155,399.499L-91.356,399.499L-90.557,399.499L-89.759,399.499L-88.96,399.499L-88.161,399.499L-87.362,399.499L-86.564,399.499L-85.765,399.499L-84.966,399.499L-84.167,399.499L-83.369,399.499L-82.57,399.499L-81.771,399.499L-80.972,399.499L-80.174,399.499L-79.375,399.499L-78.576,399.498L-77.777,399.498L-76.979,399.498L-76.18,399.498L-75.381,399.498L-74.582,399.498L-73.784,399.498L-72.985,399.498L-72.186,399.498L-71.387,399.498L-70.589,399.497L-69.79,399.497L-68.991,399.497L-68.193,399.497L-67.394,399.497L-66.595,399.497L-65.796,399.497L-64.998,399.496L-64.199,399.496L-63.4,399.496L-62.601,399.496L-61.803,399.496L-61.004,399.496L-60.205,399.495L-59.406,399.495L-58.608,399.495L-57.809,399.495L-57.01,399.494L-56.211,399.494L-55.413,399.494L-54.614,399.493L-53.815,399.493L-53.016,399.493L-52.218,399.492L-51.419,399.492L-50.62,399.492L-49.821,399.491L-49.023,399.491L-48.224,399.491L-47.425,399.49L-46.626,399.49L-45.827,399.489L-45.029,399.489L-44.23,399.488L-43.431,399.488L-42.633,399.487L-41.834,399.486L-41.035,399.486L-40.236,399.485L-39.437,399.484L-38.639,399.484L-37.84,399.483L-37.041,399.482L-36.242,399.481L-35.444,399.48L-34.645,399.48L-33.846,399.479L-33.047,399.478L-32.249,399.477L-31.45,399.476L-30.651,399.474L-29.852,399.473L-29.054,399.472L-28.255,399.471L-27.456,399.47L-26.657,399.468L-25.859,399.467L-25.06,399.465L-24.261,399.464L-23.462,399.462L-22.664,399.461L-21.865,399.459L-21.066,399.457L-20.267,399.455L-19.469,399.453L-18.67,399.451L-17.871,399.449L-17.072,399.447L-16.274,399.445L-15.475,399.442L-14.676,399.44L-13.877,399.437L-13.079,399.434L-12.28,399.432L-11.481,399.429L-10.682,399.426L-9.884,399.423L-9.085,399.419L-8.286,399.416L-7.487,399.412L-6.689,399.409L-5.89,399.405L-5.091,399.401L-4.292,399.397L-3.494,399.393L-2.695,399.388L-1.896,399.384L-1.097,399.379L-0.299,399.374L0.5,399.369L1.299,399.363L2.098,399.358L2.896,399.352L3.695,399.346L4.494,399.34L5.293,399.333L6.091,399.327L6.89,399.32L7.689,399.313L8.488,399.305L9.286,399.297L10.085,399.289L10.884,399.281L11.683,399.273L12.481,399.264L13.28,399.254L14.079,399.245L14.877,399.235L15.676,399.224L16.475,399.214L17.274,399.203L18.072,399.191L18.871,399.179L19.67,399.167L20.469,399.154L21.267,399.141L22.066,399.127L22.865,399.113L23.664,399.099L24.462,399.083L25.261,399.068L26.06,399.052L26.859,399.035L27.657,399.017L28.456,398.999L29.255,398.981L30.054,398.962L30.852,398.942L31.651,398.921L32.45,398.9L33.249,398.878L34.048,398.855L34.846,398.832L35.645,398.808L36.444,398.783L37.242,398.757L38.041,398.73L38.84,398.702L39.639,398.674L40.438,398.644L41.236,398.614L42.035,398.582L42.834,398.55L43.633,398.517L44.431,398.482L45.23,398.446L46.029,398.409L46.828,398.371L47.626,398.332L48.425,398.292L49.224,398.25L50.023,398.207L50.821,398.163L51.62,398.117L52.419,398.07L53.218,398.021L54.016,397.971L54.815,397.919L55.614,397.866L56.413,397.811L57.211,397.754L58.01,397.696L58.809,397.636L59.608,397.574L60.406,397.51L61.205,397.445L62.004,397.377L62.803,397.308L63.601,397.236L64.4,397.162L65.199,397.086L65.998,397.008L66.796,396.928L67.595,396.845L68.394,396.76L69.193,396.673L69.991,396.583L70.79,396.49L71.589,396.395L72.388,396.297L73.186,396.196L73.985,396.093L74.784,395.986L75.583,395.877L76.381,395.764L77.18,395.649L77.979,395.53L78.778,395.408L79.576,395.283L80.375,395.154L81.174,395.022L81.973,394.887L82.771,394.747L83.57,394.604L84.369,394.457L85.168,394.307L85.966,394.152L86.765,393.993L87.564,393.83L88.363,393.663L89.161,393.492L89.96,393.316L90.759,393.136L91.558,392.951L92.356,392.761L93.155,392.567L93.954,392.367L94.752,392.163L95.551,391.953L96.35,391.739L97.149,391.519L97.947,391.293L98.746,391.062L99.545,390.826L100.344,390.583L101.142,390.335L101.941,390.081L102.74,389.821L103.539,389.555L104.337,389.282L105.136,389.003L105.935,388.717L106.734,388.425L107.533,388.126L108.331,387.82L109.13,387.507L109.929,387.186L110.727,386.859L111.526,386.524L112.325,386.181L113.124,385.831L113.922,385.473L114.721,385.107L115.52,384.734L116.319,384.351L117.117,383.961L117.916,383.562L118.715,383.154L119.514,382.738L120.313,382.313L121.111,381.879L121.91,381.435L122.709,380.983L123.508,380.521L124.306,380.049L125.105,379.567L125.904,379.076L126.703,378.575L127.501,378.063L128.3,377.541L129.099,377.009L129.898,376.466L130.696,375.913L131.495,375.348L132.294,374.773L133.093,374.186L133.891,373.588L134.69,372.978L135.489,372.357L136.288,371.724L137.086,371.08L137.885,370.423L138.684,369.754L139.483,369.072L140.281,368.378L141.08,367.672L141.879,366.952L142.678,366.22L143.476,365.475L144.275,364.716L145.074,363.944L145.873,363.159L146.671,362.359L147.47,361.547L148.269,360.72L149.068,359.879L149.866,359.024L150.665,358.155L151.464,357.271L152.263,356.373L153.061,355.46L153.86,354.532L154.659,353.589L155.458,352.631L156.256,351.658L157.055,350.669L157.854,349.665L158.653,348.646L159.451,347.611L160.25,346.56L161.049,345.493L161.847,344.411L162.646,343.312L163.445,342.197L164.244,341.065L165.043,339.918L165.841,338.754L166.64,337.573L167.439,336.376L168.237,335.161L169.036,333.931L169.835,332.683L170.634,331.418L171.433,330.137L172.231,328.838L173.03,327.522L173.829,326.189L174.628,324.839L175.426,323.471L176.225,322.087L177.024,320.685L177.823,319.265L178.621,317.828L179.42,316.374L180.219,314.902L181.017,313.413L181.816,311.906L182.615,310.382L183.414,308.841L184.213,307.282L185.011,305.705L185.81,304.111L186.609,302.5L187.407,300.872L188.206,299.226L189.005,297.563L189.804,295.882L190.603,294.185L191.401,292.47L192.2,290.738L192.999,288.99L193.797,287.224L194.596,285.442L195.395,283.643L196.194,281.827L196.993,279.995L197.791,278.146L198.59,276.282L199.389,274.401L200.188,272.504L200.986,270.591L201.785,268.662L202.584,266.718L203.383,264.758L204.181,262.784L204.98,260.794L205.779,258.789L206.578,256.769L207.376,254.735L208.175,252.687L208.974,250.625L209.773,248.548L210.571,246.459L211.37,244.355L212.169,242.239L212.968,240.109L213.766,237.967L214.565,235.813L215.364,233.646L216.163,231.467L216.961,229.277L217.76,227.076L218.559,224.863L219.358,222.64L220.156,220.406L220.955,218.163L221.754,215.909L222.552,213.646L223.351,211.375L224.15,209.094L224.949,206.805L225.748,204.508L226.546,202.203L227.345,199.891L228.144,197.572L228.942,195.247L229.741,192.916L230.54,190.578L231.339,188.236L232.138,185.889L232.936,183.537L233.735,181.181L234.534,178.821L235.332,176.458L236.131,174.093L236.93,171.725L237.729,169.355L238.528,166.984L239.326,164.612L240.125,162.239L240.924,159.867L241.722,157.495L242.521,155.124L243.32,152.754L244.119,150.386L244.918,148.021L245.716,145.659L246.515,143.3L247.314,140.945L248.112,138.594L248.911,136.249L249.71,133.909L250.509,131.575L251.308,129.247L252.106,126.926L252.905,124.613L253.704,122.308L254.503,120.012L255.301,117.725L256.1,115.448L256.899,113.18L257.698,110.924L258.496,108.679L259.295,106.445L260.094,104.225L260.892,102.016L261.691,99.822L262.49,97.641L263.289,95.475L264.088,93.324L264.886,91.189L265.685,89.07L266.484,86.967L267.282,84.882L268.081,82.815L268.88,80.765L269.679,78.735L270.478,76.724L271.276,74.733L272.075,72.762L272.874,70.812L273.673,68.884L274.471,66.977L275.27,65.093L276.069,63.232L276.868,61.394L277.666,59.581L278.465,57.791L279.264,56.027L280.063,54.288L280.861,52.575L281.66,50.888L282.459,49.228L283.258,47.596L284.056,45.991L284.855,44.414L285.654,42.866L286.453,41.348L287.251,39.858L288.05,38.399L288.849,36.969L289.648,35.571L290.446,34.204L291.245,32.868L292.044,31.564L292.843,30.293L293.641,29.054L294.44,27.848L295.239,26.675L296.038,25.536L296.836,24.431L297.635,23.361L298.434,22.325L299.233,21.324L300.031,20.359L300.83,19.429L301.629,18.535L302.427,17.676L303.226,16.855L304.025,16.069L304.824,15.321L305.623,14.61L306.421,13.935L307.22,13.299L308.019,12.7L308.818,12.138L309.616,11.615L310.415,11.13L311.214,10.683L312.013,10.275L312.811,9.905L313.61,9.573L314.409,9.281L315.208,9.027L316.006,8.812L316.805,8.636L317.604,8.5L318.403,8.402L319.201,8.343L320,8.324L320.799,8.343L321.597,8.402L322.396,8.5L323.195,8.636L323.994,8.812L324.793,9.027L325.591,9.281L326.39,9.573L327.189,9.905L327.987,10.275L328.786,10.683L329.585,11.13L330.384,11.615L331.183,12.138L331.981,12.7L332.78,13.299L333.579,13.935L334.377,14.61L335.176,15.321L335.975,16.069L336.774,16.855L337.573,17.676L338.371,18.535L339.17,19.429L339.969,20.359L340.768,21.324L341.566,22.325L342.365,23.361L343.164,24.431L343.963,25.536L344.761,26.675L345.56,27.848L346.359,29.054L347.157,30.293L347.956,31.564L348.755,32.868L349.554,34.204L350.353,35.571L351.151,36.969L351.95,38.399L352.749,39.858L353.548,41.348L354.346,42.866L355.145,44.414L355.944,45.991L356.743,47.596L357.541,49.228L358.34,50.888L359.139,52.575L359.938,54.288L360.736,56.027L361.535,57.791L362.334,59.581L363.133,61.394L363.931,63.232L364.73,65.093L365.529,66.977L366.328,68.884L367.126,70.812L367.925,72.762L368.724,74.733L369.523,76.724L370.321,78.735L371.12,80.765L371.919,82.815L372.718,84.882L373.516,86.967L374.315,89.07L375.114,91.189L375.913,93.324L376.711,95.475L377.51,97.641L378.309,99.822L379.108,102.016L379.906,104.225L380.705,106.445L381.504,108.679L382.302,110.924L383.101,113.18L383.9,115.448L384.699,117.725L385.498,120.012L386.296,122.308L387.095,124.613L387.894,126.926L388.693,129.247L389.491,131.575L390.29,133.909L391.089,136.249L391.888,138.594L392.686,140.945L393.485,143.3L394.284,145.659L395.083,148.021L395.881,150.386L396.68,152.754L397.479,155.124L398.278,157.495L399.076,159.867L399.875,162.239L400.674,164.612L401.472,166.984L402.271,169.355L403.07,171.725L403.869,174.093L404.668,176.458L405.466,178.821L406.265,181.181L407.064,183.537L407.862,185.889L408.661,188.236L409.46,190.578L410.259,192.916L411.058,195.247L411.856,197.572L412.655,199.891L413.454,202.203L414.252,204.508L415.051,206.805L415.85,209.094L416.649,211.375L417.448,213.646L418.246,215.909L419.045,218.163L419.844,220.406L420.643,222.64L421.441,224.863L422.24,227.076L423.039,229.277L423.838,231.467L424.636,233.646L425.435,235.813L426.234,237.967L427.032,240.109L427.831,242.239L428.63,244.355L429.429,246.459L430.228,248.548L431.026,250.625L431.825,252.687L432.624,254.735L433.423,256.769L434.221,258.789L435.02,260.794L435.819,262.784L436.618,264.758L437.416,266.718L438.215,268.662L439.014,270.591L439.813,272.504L440.611,274.401L441.41,276.282L442.209,278.146L443.008,279.995L443.806,281.827L444.605,283.643L445.404,285.442L446.203,287.224L447.001,288.99L447.8,290.738L448.599,292.47L449.398,294.185L450.196,295.882L450.995,297.563L451.794,299.226L452.593,300.872L453.391,302.5L454.19,304.111L454.989,305.705L455.788,307.282L456.586,308.841L457.385,310.382L458.184,311.906L458.983,313.413L459.781,314.902L460.58,316.374L461.379,317.828L462.177,319.265L462.976,320.685L463.775,322.087L464.574,323.471L465.373,324.839L466.171,326.189L466.97,327.522L467.769,328.838L468.568,330.137L469.366,331.418L470.165,332.683L470.964,333.931L471.763,335.161L472.561,336.376L473.36,337.573L474.159,338.754L474.958,339.918L475.756,341.065L476.555,342.197L477.354,343.312L478.153,344.411L478.951,345.493L479.75,346.56L480.549,347.611L481.347,348.646L482.146,349.665L482.945,350.669L483.744,351.658L484.543,352.631L485.341,353.589L486.14,354.532L486.939,355.46L487.737,356.373L488.536,357.271L489.335,358.155L490.134,359.024L490.933,359.879L491.731,360.72L492.53,361.547L493.329,362.359L494.127,363.159L494.926,363.944L495.725,364.716L496.524,365.475L497.323,366.22L498.121,366.952L498.92,367.672L499.719,368.378L500.518,369.072L501.316,369.754L502.115,370.423L502.914,371.08L503.713,371.724L504.511,372.357L505.31,372.978L506.109,373.588L506.907,374.186L507.706,374.773L508.505,375.348L509.304,375.913L510.103,376.466L510.901,377.009L511.7,377.541L512.499,378.063L513.298,378.575L514.096,379.076L514.895,379.567L515.694,380.049L516.493,380.521L517.291,380.983L518.09,381.435L518.889,381.879L519.688,382.313L520.486,382.738L521.285,383.154L522.084,383.562L522.883,383.961L523.681,384.351L524.48,384.734L525.279,385.107L526.078,385.473L526.876,385.831L527.675,386.181L528.474,386.524L529.273,386.859L530.071,387.186L530.87,387.507L531.669,387.82L532.468,388.126L533.266,388.425L534.065,388.717L534.864,389.003L535.663,389.282L536.461,389.555L537.26,389.821L538.059,390.081L538.858,390.335L539.656,390.583L540.455,390.826L541.254,391.062L542.053,391.293L542.851,391.519L543.65,391.739L544.449,391.953L545.248,392.163L546.046,392.367L546.845,392.567L547.644,392.761L548.442,392.951L549.241,393.136L550.04,393.316L550.839,393.492L551.638,393.663L552.436,393.83L553.235,393.993L554.034,394.152L554.833,394.307L555.631,394.457L556.43,394.604L557.229,394.747L558.028,394.887L558.826,395.022L559.625,395.154L560.424,395.283L561.223,395.408L562.021,395.53L562.82,395.649L563.619,395.764L564.418,395.877L565.216,395.986L566.015,396.093L566.814,396.196L567.613,396.297L568.411,396.395L569.21,396.49L570.009,396.583L570.808,396.673L571.606,396.76L572.405,396.845L573.204,396.928L574.002,397.008L574.801,397.086L575.6,397.162L576.399,397.236L577.198,397.308L577.996,397.377L578.795,397.445L579.594,397.51L580.392,397.574L581.191,397.636L581.99,397.696L582.789,397.754L583.588,397.811L584.386,397.866L585.185,397.919L585.984,397.971L586.783,398.021L587.581,398.07L588.38,398.117L589.179,398.163L589.978,398.207L590.776,398.25L591.575,398.292L592.374,398.332L593.173,398.371L593.971,398.409L594.77,398.446L595.569,398.482L596.368,398.517L597.166,398.55L597.965,398.582L598.764,398.614L599.563,398.644L600.361,398.674L601.16,398.702L601.959,398.73L602.758,398.757L603.556,398.783L604.355,398.808L605.154,398.832L605.953,398.855L606.751,398.878L607.55,398.9L608.349,398.921L609.148,398.942L609.946,398.962L610.745,398.981L611.544,398.999L612.343,399.017L613.141,399.035L613.94,399.052L614.739,399.068L615.538,399.083L616.336,399.099L617.135,399.113L617.934,399.127L618.733,399.141L619.531,399.154L620.33,399.167L621.129,399.179L621.928,399.191L622.726,399.203L623.525,399.214L624.324,399.224L625.123,399.235L625.921,399.245L626.72,399.254L627.519,399.264L628.317,399.273L629.116,399.281L629.915,399.289L630.714,399.297L631.513,399.305L632.311,399.313L633.11,399.32L633.909,399.327L634.708,399.333L635.506,399.34L636.305,399.346L637.104,399.352L637.903,399.358L638.701,399.363L639.5,399.369L640.299,399.374L641.098,399.379L641.896,399.384L642.695,399.388L643.494,399.393L644.293,399.397L645.091,399.401L645.89,399.405L646.689,399.409L647.488,399.412L648.286,399.416L649.085,399.419L649.884,399.423L650.683,399.426L651.481,399.429L652.28,399.432L653.079,399.434L653.877,399.437L654.676,399.44L655.475,399.442L656.274,399.445L657.073,399.447L657.871,399.449L658.67,399.451L659.469,399.453L660.267,399.455L661.066,399.457L661.865,399.459L662.664,399.461L663.463,399.462L664.261,399.464L665.06,399.465L665.859,399.467L666.658,399.468L667.456,399.47L668.255,399.471L669.054,399.472L669.853,399.473L670.651,399.474L671.45,399.476L672.249,399.477L673.048,399.478L673.846,399.479L674.645,399.48L675.444,399.48L676.243,399.481L677.041,399.482L677.84,399.483L678.639,399.484L679.438,399.484L680.236,399.485L681.035,399.486L681.834,399.486L682.633,399.487L683.431,399.488L684.23,399.488L685.029,399.489L685.828,399.489L686.626,399.49L687.425,399.49L688.224,399.491L689.023,399.491L689.821,399.491L690.62,399.492L691.419,399.492L692.218,399.492L693.016,399.493L693.815,399.493L694.614,399.493L695.413,399.494L696.211,399.494L697.01,399.494L697.809,399.495L698.608,399.495L699.406,399.495L700.205,399.495L701.004,399.496L701.803,399.496L702.601,399.496L703.4,399.496L704.199,399.496L704.998,399.496L705.796,399.497L706.595,399.497L707.394,399.497L708.192,399.497L708.991,399.497L709.79,399.497L710.589,399.497L711.388,399.498L712.186,399.498L712.985,399.498L713.784,399.498L714.583,399.498L715.381,399.498L716.18,399.498L716.979,399.498L717.778,399.498L718.576,399.498L719.375,399.499L720.174,399.499L720.973,399.499L721.771,399.499L722.57,399.499L723.369,399.499L724.168,399.499L724.966,399.499L725.765,399.499L726.564,399.499L727.363,399.499L728.161,399.499L728.96,399.499L729.759,399.499L730.558,399.499L731.356,399.499L732.155,399.499L732.954,399.499L733.752,399.499L734.551,399.499L735.35,399.499L736.149,399.5L736.948,399.5L737.746,399.5L738.545,399.5L739.344,399.5L740.142,399.5L740.941,399.5L741.74,399.5L742.539,399.5L743.338,399.5L744.136,399.5L744.935,399.5L745.734,399.5L746.533,399.5L747.331,399.5L748.13,399.5L748.929,399.5L749.728,399.5L750.526,399.5L751.325,399.5L752.124,399.5L752.923,399.5L753.721,399.5L754.52,399.5L755.319,399.5L756.118,399.5L756.916,399.5L757.715,399.5L758.514,399.5L759.313,399.5L760.111,399.5L760.91,399.5L761.709,399.5L762.508,399.5L763.306,399.5L764.105,399.5L764.904,399.5L765.703,399.5L766.501,399.5L767.3,399.5L768.099,399.5L768.898,399.5L769.696,399.5L770.495,399.5L771.294,399.5L772.093,399.5L772.891,399.5L773.69,399.5L774.489,399.5L775.288,399.5L776.086,399.5L776.885,399.5L777.684,399.5L778.483,399.5L779.281,399.5L780.08,399.5L780.879,399.5L781.678,399.5L782.476,399.5L783.275,399.5L784.074,399.5L784.873,399.5L785.671,399.5L786.47,399.5L787.269,399.5L788.068,399.5L788.866,399.5L789.665,399.5L790.464,399.5L791.263,399.5L792.061,399.5L792.86,399.5L793.659,399.5L794.458,399.5L795.256,399.5L796.055,399.5L796.854,399.5L797.653,399.5L798.451,399.5L799.25,399.5L800.049,399.5L800.848,399.5L801.646,399.5L802.445,399.5L803.244,399.5L804.042,399.5L804.841,399.5L805.64,399.5L806.439,399.5L807.238,399.5L808.036,399.5L808.835,399.5L809.634,399.5L810.433,399.5L811.231,399.5L812.03,399.5L812.829,399.5L813.627,399.5L814.426,399.5L815.225,399.5L816.024,399.5L816.823,399.5L817.621,399.5L818.42,399.5L819.219,399.5L820.018,399.5L820.816,399.5L821.615,399.5L822.414,399.5L823.213,399.5L824.011,399.5L824.81,399.5L825.609,399.5L826.408,399.5L827.206,399.5L828.005,399.5L828.804,399.5L829.603,399.5L830.401,399.5L831.2,399.5L831.999,399.5L832.798,399.5L833.596,399.5L834.395,399.5L835.194,399.5L835.993,399.5L836.791,399.5L837.59,399.5L838.389,399.5L839.188,399.5L839.986,399.5L840.785,399.5L841.584,399.5L842.382,399.5L843.181,399.5L843.98,399.5L844.779,399.5L845.578,399.5L846.376,399.5L847.175,399.5L847.974,399.5L848.773,399.5L849.571,399.5L850.37,399.5L851.169,399.5L851.968,399.5L852.766,399.5L853.565,399.5L854.364,399.5L855.162,399.5L855.961,399.5L856.76,399.5L857.559,399.5L858.358,399.5L859.156,399.5L859.955,399.5L860.754,399.5L861.553,399.5L862.351,399.5L863.15,399.5L863.949,399.5L864.748,399.5L865.546,399.5L866.345,399.5L867.144,399.5L867.942,399.5L868.741,399.5L869.54,399.5L870.339,399.5L871.137,399.5L871.936,399.5L872.735,399.5L873.534,399.5L874.333,399.5L875.131,399.5L875.93,399.5L876.729,399.5L877.528,399.5L878.326,399.5L879.125,399.5L879.924,399.5L880.723,399.5L881.521,399.5L882.32,399.5L883.119,399.5L883.917,399.5L884.716,399.5L885.515,399.5L886.314,399.5L887.113,399.5L887.911,399.5L888.71,399.5L889.509,399.5L890.308,399.5L891.106,399.5L891.905,399.5L892.704,399.5L893.502,399.5L894.301,399.5L895.1,399.5L895.899,399.5L896.698,399.5L897.496,399.5L898.295,399.5L899.094,399.5L899.893,399.5L900.691,399.5L901.49,399.5L902.289,399.5L903.088,399.5L903.886,399.5L904.685,399.5L905.484,399.5L906.283,399.5L907.081,399.5L907.88,399.5L908.679,399.5L909.478,399.5L910.276,399.5L911.075,399.5L911.874,399.5L912.673,399.5L913.471,399.5L914.27,399.5L915.069,399.5L915.868,399.5L916.666,399.5L917.465,399.5L918.264,399.5L919.063,399.5L919.861,399.5L920.66,399.5L921.459,399.5L922.257,399.5L923.056,399.5L923.855,399.5L924.654,399.5L925.453,399.5L926.251,399.5L927.05,399.5L927.849,399.5L928.648,399.5L929.446,399.5L930.245,399.5L931.044,399.5L931.843,399.5L932.641,399.5L933.44,399.5L934.239,399.5L935.037,399.5L935.836,399.5L936.635,399.5L937.434,399.5L938.233,399.5L939.031,399.5L939.83,399.5L940.629,399.5L941.428,399.5L942.226,399.5L943.025,399.5L943.824,399.5L944.623,399.5L945.421,399.5L946.22,399.5L947.019,399.5L947.817,399.5L948.616,399.5L949.415,399.5L950.214,399.5L951.013,399.5L951.811,399.5L952.61,399.5L953.409,399.5L954.208,399.5L955.006,399.5L955.805,399.5L956.604,399.5L957.403,399.5L958.201,399.5L959,399.5L959.799,399.5L960.598,399.5L961.396,399.5L962.195,399.5L962.994,399.5L963.792,399.5L964.591,399.5L965.39,399.5L966.189,399.5L966.988,399.5L967.786,399.5L968.585,399.5L969.384,399.5L970.183,399.5L970.981,399.5L971.78,399.5L972.579,399.5L973.377,399.5L974.176,399.5L974.975,399.5L975.774,399.5L976.573,399.5L977.371,399.5L978.17,399.5L978.969,399.5L979.768,399.5L980.566,399.5L981.365,399.5L982.164,399.5L982.963,399.5L983.761,399.5L984.56,399.5L985.359,399.5L986.158,399.5L986.956,399.5L987.755,399.5L988.554,399.5L989.353,399.5L990.151,399.5L990.95,399.5L991.749,399.5L992.548,399.5L993.346,399.5L994.145,399.5L994.944,399.5L995.743,399.5L996.541,399.5L997.34,399.5L998.139,399.5L998.938,399.5L999.736,399.5L1000.535,399.5L1001.334,399.5L1002.132,399.5L1002.931,399.5L1003.73,399.5L1004.529,399.5L1005.328,399.5L1006.126,399.5L1006.925,399.5L1007.724,399.5L1008.523,399.5L1009.321,399.5L1010.12,399.5L1010.919,399.5L1011.718,399.5L1012.516,399.5L1013.315,399.5L1014.114,399.5L1014.912,399.5L1015.711,399.5L1016.51,399.5L1017.309,399.5L1018.108,399.5L1018.906,399.5L1019.705,399.5L1020.504,399.5L1021.303,399.5L1022.101,399.5L1022.9,399.5L1023.699,399.5L1024.498,399.5L1025.296,399.5L1026.095,399.5L1026.894,399.5L1027.692,399.5L1028.491,399.5L1029.29,399.5L1030.089,399.5L1030.888,399.5L1031.686,399.5L1032.485,399.5L1033.284,399.5L1034.083,399.5L1034.881,399.5L1035.68,399.5L1036.479,399.5L1037.278,399.5L1038.076,399.5L1038.875,399.5L1039.674,399.5L1040.472,399.5L1041.271,399.5L1042.07,399.5L1042.869,399.5L1043.667,399.5L1044.466,399.5L1045.265,399.5L1046.064,399.5L1046.863,399.5L1047.661,399.5L1048.46,399.5L1049.259,399.5L1050.058,399.5L1050.856,399.5L1051.655,399.5L1052.454,399.5L1053.253,399.5L1054.051,399.5L1054.85,399.5L1055.649,399.5L1056.447,399.5L1057.246,399.5L1058.045,399.5L1058.844,399.5L1059.643,399.5L1060.441,399.5L1061.24,399.5L1062.039,399.5L1062.838,399.5L1063.636,399.5L1064.435,399.5L1065.234,399.5L1066.033,399.5L1066.831,399.5L1067.63,399.5L1068.429,399.5L1069.228,399.5L1070.026,399.5L1070.825,399.5L1071.624,399.5L1072.423,399.5L1073.221,399.5L1074.02,399.5L1074.819,399.5L1075.618,399.5L1076.416,399.5L1077.215,399.5L1078.014,399.5L1078.813,399.5L1079.611,399.5L1080.41,399.5L1081.209,399.5L1082.008,399.5L1082.806,399.5L1083.605,399.5L1084.404,399.5L1085.203,399.5L1086.001,399.5L1086.8,399.5L1087.599,399.5L1088.398,399.5L1089.196,399.5L1089.995,399.5L1090.794,399.5L1091.593,399.5L1092.391,399.5L1093.19,399.5L1093.989,399.5L1094.788,399.5L1095.586,399.5L1096.385,399.5L1097.184,399.5L1097.983,399.5L1098.781,399.5L1099.58,399.5L1100.379,399.5L1101.178,399.5L1101.976,399.5L1102.775,399.5L1103.574,399.5L1104.373,399.5L1105.171,399.5L1105.97,399.5L1106.769,399.5L1107.567,399.5L1108.366,399.5L1109.165,399.5L1109.964,399.5L1110.763,399.5L1111.561,399.5L1112.36,399.5L1113.159,399.5L1113.958,399.5L1114.756,399.5L1115.555,399.5L1116.354,399.5L1117.153,399.5L1117.951,399.5"/></g></svg>